<?xml version="1.0" encoding="UTF-8" standalone="no"?>
<!-- Created with Inkscape (http://www.inkscape.org/) -->

<svg xmlns="http://www.w3.org/2000/svg" xmlns:xlink="http://www.w3.org/1999/xlink" version="1.1" height="3200" width="3200">
  <circle
    cx="1600"
    cy="1600"
    r="1600"
    id="background"
    style="fill:#0000ff" />
  <g id="weatherGauge">
    <circle
      cx="2290"
      cy="1600"
      r="450"
      id="accessoryRightBackground"
      style="fill:#808080"/>
  </g>
  <g id="batteryGauge">
    <circle
      cx="1600"
      cy="910"
      r="450"
      id="accessoryTopBackground"
      style="fill:#808080"/>
    <g id="watchIcon">
      <ellipse id="watchIconCircle"
        cy="720"
        cx="1600"
        style="fill:none;stroke:#ffffff;stroke-width:20"
        rx="50"
        ry="50" />
      <rect
        id="watchIconLeftSqure"
        width="60"
        height="60"
        x="1495"
        y="690"
        style="fill:#ffffff" />
      <rect
        id="watchIconRightSqure"
        width="60"
        height="60"
        x="1650"
        y="690"
        style="fill:#ffffff" />
    </g>
    <g id="phoneIcon">
      <rect
        id="phoneIconSquare"
        width="170"
        height="100"
        x="1515"
        y="1050"
        rx="10"
        ry="10"
        style="fill:none;stroke:#ffffff;stroke-width:20" />
      <rect
        id="phoneIconBaseSquare"
        width="40"
        height="100"
        x="1515"
        y="1050"
        style="fill:#ffffff" />
      <ellipse
        id="phoneIconButton"
        cx="1530"
        cy="1100"
        style="fill:#000000"
        rx="10"
        ry="10" />
    </g>
    <!-- Watch Battery Tick Marks -->
    <g id="watchBatteryGauge">
      <path
        id="watchBatteryArc"
        d="m 1250,740 a 390,390 0 0 1 700,0"
        stroke-width="20"
        stroke="white"
        fill="none" />
      <rect
        id="watch0PercentTick"
        width="20"
        height="80"
        x="1590"
        y="520"
        transform="rotate(-62.5, 1600,910)"
        style="fill:#ffffff" />
      <rect
        id="watch5PercentTick"
        width="10"
        height="40"
        x="1595"
        y="540"
        transform="rotate(-56.25, 1600,910)"
        style="fill:#ffffff" />
      <rect
        id="watch10PercentTick"
        width="10"
        height="40"
        x="1595"
        y="540"
        transform="rotate(-50, 1600,910)"
        style="fill:#ffffff" />
      <rect
        id="watch15PercentTick"
        width="10"
        height="40"
        x="1595"
        y="540"
        transform="rotate(-43.75, 1600,910)"
        style="fill:#ffffff" />
      <rect
        id="watch20PercentTick"
        width="10"
        height="40"
        x="1595"
        y="540"
        transform="rotate(-37.5, 1600,910)"
        style="fill:#ffffff" />
      <rect
        id="watch25PercentTick"
        width="20"
        height="80"
        x="1590"
        y="520"
        transform="rotate(-31.25, 1600,910)"
        style="fill:#ffffff" />
      <rect
        id="watch30PercentTick"
        width="10"
        height="40"
        x="1595"
        y="540"
        transform="rotate(-25, 1600,910)"
        style="fill:#ffffff" />
      <rect
        id="watch35PercentTick"
        width="10"
        height="40"
        x="1595"
        y="540"
        transform="rotate(-18.75, 1600,910)"
        style="fill:#ffffff" />
      <rect
        id="watch40PercentTick"
        width="10"
        height="40"
        x="1595"
        y="540"
        transform="rotate(-12.5, 1600,910)"
        style="fill:#ffffff" />
      <rect
        id="watch45PercentTick"
        width="10"
        height="40"
        x="1595"
        y="540"
        transform="rotate(-6.25, 1600,910)"
        style="fill:#ffffff" />
      <rect
        id="watch50PercentTick"
        width="20"
        height="80"
        x="1590"
        y="520"
        style="fill:#ffffff"/>
      <rect
        id="watch55PercentTick"
        width="10"
        height="40"
        x="1595"
        y="540"
        transform="rotate(6.25, 1600,910)"
        style="fill:#ffffff" />
      <rect
        id="watch60PercentTick"
        width="10"
        height="40"
        x="1595"
        y="540"
        transform="rotate(12.5, 1600,910)"
        style="fill:#ffffff" />
      <rect
        id="watch65PercentTick"
        width="10"
        height="40"
        x="1595"
        y="540"
        transform="rotate(18.75, 1600,910)"
        style="fill:#ffffff" />
      <rect
        id="watch70PercentTick"
        width="10"
        height="40"
        x="1595"
        y="540"
        transform="rotate(25, 1600,910)"
        style="fill:#ffffff" />
      <rect
        id="watch75PercentTick"
        width="20"
        height="80"
        x="1590"
        y="520"
        transform="rotate(31.25, 1600,910)"
        style="fill:#ffffff" />
      <rect
        id="watch80PercentTick"
        width="10"
        height="40"
        x="1595"
        y="540"
        transform="rotate(37.5, 1600,910)"
        style="fill:#ffffff" />
      <rect
        id="watch85PercentTick"
        width="10"
        height="40"
        x="1595"
        y="540"
        transform="rotate(43.75, 1600,910)"
        style="fill:#ffffff" />
      <rect
        id="watch90PercentTick"
        width="10"
        height="40"
        x="1595"
        y="540"
        transform="rotate(50, 1600,910)"
        style="fill:#ffffff" />
      <rect
        id="watch95PercentTick"
        width="10"
        height="40"
        x="1595"
        y="540"
        transform="rotate(56.25, 1600,910)"
        style="fill:#ffffff" />
      <rect
        id="watch100PercentTick"
        width="20"
        height="80"
        x="1590"
        y="520"
        transform="rotate(62.5, 1600,910)"
        style="fill:#ffffff" />
    </g>
      <!-- Mobile Battery Tick Marks -->
    <g id="mobileBatteryGauge">
      <path
        id="mobileBatteryArc"
        d="m 1250,1080 a 390,390 0 0 0 700,0"
        style="fill:none;stroke:#ffffff;stroke-width:20" />
      <rect
        id="mobile0PercentTick"
        width="20"
        height="80"
        x="1590"
        y="1220"
        transform="rotate(-62.5, 1600,910)"
        style="fill:#ffffff" />
      <rect
        id="mobile5PercentTick"
        width="10"
        height="40"
        x="1595"
        y="1240"
        transform="rotate(-56.25, 1600,910)"
        style="fill:#ffffff" />
      <rect
        id="mobile10PercentTick"
        width="10"
        height="40"
        x="1595"
        y="1240"
        transform="rotate(-50, 1600,910)"
        style="fill:#ffffff" />
      <rect
        id="mobile15PercentTick"
        width="10"
        height="40"
        x="1595"
        y="1240"
        transform="rotate(-43.75, 1600,910)"
        style="fill:#ffffff" />
      <rect
        id="mobile20PercentTick"
        width="10"
        height="40"
        x="1595"
        y="1240"
        transform="rotate(-37.5, 1600,910)"
        style="fill:#ffffff" />
      <rect
        id="mobile25PercentTick"
        width="20"
        height="80"
        x="1590"
        y="1220"
        transform="rotate(-31.25, 1600,910)"
        style="fill:#ffffff" />
      <rect
        id="mobile30PercentTick"
        width="10"
        height="40"
        x="1595"
        y="1240"
        transform="rotate(-25, 1600,910)"
        style="fill:#ffffff" />
      <rect
        id="mobile35PercentTick"
        width="10"
        height="40"
        x="1595"
        y="1240"
        transform="rotate(-18.75, 1600,910)"
        style="fill:#ffffff" />
      <rect
        id="mobile40PercentTick"
        width="10"
        height="40"
        x="1595"
        y="1240"
        transform="rotate(-12.5, 1600,910)"
        style="fill:#ffffff" />
      <rect
        id="mobile45PercentTick"
        width="10"
        height="40"
        x="1595"
        y="1240"
        transform="rotate(-6.25, 1600,910)"
        style="fill:#ffffff" />
      <rect
        id="mobile50PercentTick"
        width="20"
        height="80"
        x="1590"
        y="1220"
        style="fill:#ffffff" />
      <rect
        id="mobile55PercentTick"
        width="10"
        height="40"
        x="1595"
        y="1240"
        transform="rotate(6.25, 1600,910)"
        style="fill:#ffffff" />
      <rect
        id="mobile60PercentTick"
        width="10"
        height="40"
        x="1595"
        y="1240"
        transform="rotate(12.5, 1600,910)"
        style="fill:#ffffff" />
      <rect
        id="mobile65PercentTick"
        width="10"
        height="40"
        x="1595"
        y="1240"
        transform="rotate(18.75, 1600,910)"
        style="fill:#ffffff" />
      <rect
        id="mobile70PercentTick"
        width="10"
        height="40"
        x="1595"
        y="1240"
        transform="rotate(25, 1600,910)"
        style="fill:#ffffff" />
      <rect
        id="mobile75PercentTick"
        width="20"
        height="80"
        x="1590"
        y="1220"
        transform="rotate(31.25, 1600,910)"
        style="fill:#ffffff" />
      <rect
        id="mobile80PercentTick"
        width="10"
        height="40"
        x="1595"
        y="1240"
        transform="rotate(37.5, 1600,910)"
        style="fill:#ffffff" />
      <rect
        id="mobile85PercentTick"
        width="10"
        height="40"
        x="1595"
        y="1240"
        transform="rotate(43.75, 1600,910)"
        style="fill:#ffffff" />
      <rect
        id="mobile90PercentTick"
        width="10"
        height="40"
        x="1595"
        y="1240"
        transform="rotate(50, 1600,910)"
        style="fill:#ffffff" />
      <rect
        id="mobile95PercentTick"
        width="10"
        height="40"
        x="1595"
        y="1240"
        transform="rotate(56.25, 1600,910)"
        style="fill:#ffffff" />
      <rect
        id="mobile100PercentTick"
        width="20"
        height="80"
        x="1590"
        y="1220"
        transform="rotate(62.5, 1600,910)"
        style="fill:#ffffff" />
    </g>
  </g>
  <g id="dateGauge">
    <circle
      cx="910"
      cy="1600"
      r="450"
      id="accessoryLeftBackground"
      style="fill:#808080" />
    <circle
       id="circleDateText"
       cx="910"
       cy="1600"
       fill="none"
       r="330"/>
    <use xlink:href="#circleDateText" fill="none" stroke="none"  />
    <!-- <text font-family="Verdana" font-size="42.5">
    <textPath xlink:href="#circleDateText">
      We go up, then we go down, then up again
    </textPath>
    </text> -->
    <text
      xml:space="preserve"
      style="font-style:normal;font-variant:normal;font-weight:bold;font-stretch:normal;font-size:50px;line-height:125%;font-family:sans-serif;-inkscape-font-specification:'sans-serif Bold';letter-spacing:0px;word-spacing:0px;fill:#ffffff;fill-opacity:1;stroke:red;stroke-width:5px;stroke-linecap:butt;stroke-linejoin:miter;"
      id="dateText">
      <textPath
        xlink:href="#circleDateText"
        id="textPath5669"><tspan
        id="tspan5664"
        style="font-style:normal;font-variant:normal;font-weight:bold;font-stretch:normal;font-family:sans-serif;fill:#ffffff"> SUN  MON  TUE  WED  THU  FRI  SAT</tspan>
      </textPath>
    </text>
    <circle
       id="circleDateSelector"
       cx="910"
       cy="1600"
       stroke-width="20px"
       stroke="white"
       fill="none"
       r="280" />
  </g>
  <g id="TBD">
    <circle
       cx="69"
       cy="0.5"
       r="45"
       id="circle4285"
       style="fill:#808080;filter:url(#filter4069)"
       transform="matrix(0.99999918,0,0,-1,91.168577,90.263255)" />
    <circle
       cx="0"
       cy="69.5"
       r="45"
       id="circle4067"
       style="fill:#808080;filter:url(#filter4069)"
       transform="matrix(0.99999918,0,0,-1,229.30103,227.96275)" />
    <circle
       cx="-69"
       cy="0.5"
       r="45"
       id="circle4283"
       style="fill:#808080;filter:url(#filter4069)"
       transform="matrix(0.99999918,0,0,-1,161.3999,159.7882)" />
  </g>
  <g id="tickMarks">
    <rect 
      id="tickMark0"
      x="1575"
      y="0"
      height="300px"
      width="50px"
      fill="white"/>
    <rect
      id="tickMark1"
      x="1590"
      y="100"
      height="100px"
      width="20px"
      fill="white"
      transform="rotate(6,1600,1600)"/>
    <rect
      id="tickMark2"
      x="1590"
      y="100"
      height="100px"
      width="20px"
      fill="white"
      transform="rotate(12,1600,1600)"/>
    <rect
      id="tickMark3"
      x="1590"
      y="100"
      height="100px"
      width="20px"
      fill="white"
      transform="rotate(18,1600,1600)"/>
    <rect
      id="tickMark4"
      x="1590"
      y="100"
      height="100px"
      width="20px"
      fill="white"
      transform="rotate(24,1600,1600)"/>
    <rect 
      id="tickMark5"
      x="1575"
      y="0"
      height="300px"
      width="50px"
      fill="white"
      transform="rotate(30,1600,1600)"/>
    <rect
      id="tickMark6"
      x="1590"
      y="100"
      height="100px"
      width="20px"
      fill="white"
      transform="rotate(36,1600,1600)"/>
    <rect
      id="tickMark7"
      x="1590"
      y="100"
      height="100px"
      width="20px"
      fill="white"
      transform="rotate(42,1600,1600)"/>
    <rect
      id="tickMark8"
      x="1590"
      y="100"
      height="100px"
      width="20px"
      fill="white"
      transform="rotate(48,1600,1600)"/>
    <rect
      id="tickMark9"
      x="1590"
      y="100"
      height="100px"
      width="20px"
      fill="white"
      transform="rotate(54,1600,1600)"/>
    <rect 
      id="tickMark10"
      x="1575"
      y="0"
      height="300px"
      width="50px"
      fill="white"
      transform="rotate(60,1600,1600)"/>
    <rect
      id="tickMark11"
      x="1590"
      y="100"
      height="100px"
      width="20px"
      fill="white"
      transform="rotate(66,1600,1600)"/>
    <rect
      id="tickMark12"
      x="1590"
      y="100"
      height="100px"
      width="20px"
      fill="white"
      transform="rotate(72,1600,1600)"/>
    <rect
      id="tickMark13"
      x="1590"
      y="100"
      height="100px"
      width="20px"
      fill="white"
      transform="rotate(78,1600,1600)"/>
    <rect
      id="tickMark14"
      x="1590"
      y="100"
      height="100px"
      width="20px"
      fill="white"
      transform="rotate(84,1600,1600)"/>
    <rect 
      id="tickMark15"
      x="1575"
      y="0"
      height="300px"
      width="50px"
      fill="white"
      transform="rotate(90,1600,1600)"/>
    <rect
      id="tickMark16"
      x="1590"
      y="100"
      height="100px"
      width="20px"
      fill="white"
      transform="rotate(96,1600,1600)"/>
    <rect
      id="tickMark17"
      x="1590"
      y="100"
      height="100px"
      width="20px"
      fill="white"
      transform="rotate(102,1600,1600)"/>
    <rect
      id="tickMark18"
      x="1590"
      y="100"
      height="100px"
      width="20px"
      fill="white"
      transform="rotate(108,1600,1600)"/>
    <rect
      id="tickMark19"
      x="1590"
      y="100"
      height="100px"
      width="20px"
      fill="white"
      transform="rotate(114,1600,1600)"/>
    <rect 
      id="tickMark20"
      x="1575"
      y="0"
      height="300px"
      width="50px"
      fill="white"
      transform="rotate(120,1600,1600)"/>
    <rect
      id="tickMark21"
      x="1590"
      y="100"
      height="100px"
      width="20px"
      fill="white"
      transform="rotate(126,1600,1600)"/>
    <rect
      id="tickMark22"
      x="1590"
      y="100"
      height="100px"
      width="20px"
      fill="white"
      transform="rotate(132,1600,1600)"/>
    <rect
      id="tickMark23"
      x="1590"
      y="100"
      height="100px"
      width="20px"
      fill="white"
      transform="rotate(138,1600,1600)"/>
        
    <path 
      id="tickMark24"
      d="M2386.6968 2700 L 2459.351 2800 L 2484.351 2800 L 2411.6968 2700"
      fill="white" />
    <path 
      id="tickMark25"
      d="M2147.3503 2600 L 2320.5554 2900 L 2380.5554 2900 L 2207.3503 2600"
      fill="white" />
    <path 
      id="tickMark26"
      d="M2077.2516 2700 L 2121.7744 2800 L 2146.7744 2800 L 2102.2516 2700"
      fill="white" />
    <path 
      id="tickMark27"
      d="M1944.9117 2700 L 1977.4036 2800 L 2002.4036 2800 L 1969.9117 2700"
      fill="white" />
    <path 
      id="tickMark28"
      d="M1821.3123 2700 L 1842.5679 2800 L 1867.5679 2800 L 1846.3123 2700"
      fill="white" />
    <path 
      id="tickMark29"
      d="M1703.1146 2700 L 1713.625 2800 L 1738.625 2800 L 1728.1146 2700"
      fill="white" />
    <path 
      id="tickMark30"
      d="M1570 2600 L 1570 2900 L 1630 2900 L 1630 2600"
      fill="white" />
    <path 
      id="tickMark31"
      d="M1471.8854 2700 L 1461.375 2800 L 1486.375 2800 L 1496.8854 2700"
      fill="white" />      
    <path 
      id="tickMark32"
      d="M1353.6877 2700 L 1332.4321 2800 L 1357.4321 2800 L 1378.6877 2700"
      fill="white" />
    <path 
      id="tickMark33"
      d="M1230.08835 2700 L 1197.59636 2800 L 1222.59636 2800 L 1255.08835 2700"
      fill="white" />
    <path 
      id="tickMark34"
      d="M1097.7484 2700 L 1053.22556 2800 L 1078.22556 2800 L 1122.7484 2700"
      fill="white" />
    <path 
      id="tickMark35"
      d="M992.6497 2600 L 819.44466 2900 L 879.44466 2900 L 1052.6497 2600"
      fill="white" />
    <path 
      id="tickMark36"
      d="M788.3032 2700 L 715.64896 2800 L 740.64896 2800 L 813.3032 2700"
      fill="white" />
    <rect
      id="tickMark37"
      x="1590"
      y="100"
      height="100px"
      width="20px"
      fill="white"
      transform="rotate(-138,1600,1600)"/>
    <rect
      id="tickMark38"
      x="1590"
      y="100"
      height="100px"
      width="20px"
      fill="white"
      transform="rotate(-132,1600,1600)"/>
    <rect
      id="tickMark39"
      x="1590"
      y="100"
      height="100px"
      width="20px"
      fill="white"
      transform="rotate(-126,1600,1600)"/>
    <rect 
      id="tickMark40"
      x="1575"
      y="0"
      height="300px"
      width="50px"
      fill="white"
      transform="rotate(-120,1600,1600)"/>
    <rect
      id="tickMark41"
      x="1590"
      y="100"
      height="100px"
      width="20px"
      fill="white"
      transform="rotate(-114,1600,1600)"/>
    <rect
      id="tickMark42"
      x="1590"
      y="100"
      height="100px"
      width="20px"
      fill="white"
      transform="rotate(-108,1600,1600)"/>
    <rect
      id="tickMark43"
      x="1590"
      y="100"
      height="100px"
      width="20px"
      fill="white"
      transform="rotate(-102,1600,1600)"/>
    <rect
      id="tickMark44"
      x="1590"
      y="100"
      height="100px"
      width="20px"
      fill="white"
      transform="rotate(-96,1600,1600)"/>
    <rect 
      id="tickMark45"
      x="1575"
      y="0"
      height="300px"
      width="50px"
      fill="white"
      transform="rotate(-90,1600,1600)"/>
    <rect
      id="tickMark46"
      x="1590"
      y="100"
      height="100px"
      width="20px"
      fill="white"
      transform="rotate(-84,1600,1600)"/>
    <rect
      id="tickMark47"
      x="1590"
      y="100"
      height="100px"
      width="20px"
      fill="white"
      transform="rotate(-78,1600,1600)"/>
    <rect
      id="tickMark48"
      x="1590"
      y="100"
      height="100px"
      width="20px"
      fill="white"
      transform="rotate(-72,1600,1600)"/>
    <rect
      id="tickMark49"
      x="1590"
      y="100"
      height="100px"
      width="20px"
      fill="white"
      transform="rotate(-66,1600,1600)"/>
    <rect 
      id="tickMark50"
      x="1575"
      y="0"
      height="300px"
      width="50px"
      fill="white"
      transform="rotate(-60,1600,1600)"/>
    <rect
      id="tickMark51"
      x="1590"
      y="100"
      height="100px"
      width="20px"
      fill="white"
      transform="rotate(-54,1600,1600)"/>
    <rect
      id="tickMark52"
      x="1590"
      y="100"
      height="100px"
      width="20px"
      fill="white"
      transform="rotate(-48,1600,1600)"/>
    <rect
      id="tickMark53"
      x="1590"
      y="100"
      height="100px"
      width="20px"
      fill="white"
      transform="rotate(-42,1600,1600)"/>
    <rect
      id="tickMark54"
      x="1590"
      y="100"
      height="100px"
      width="20px"
      fill="white"
      transform="rotate(-36,1600,1600)"/>
    <rect 
      id="tickMark55"
      x="1575"
      y="0"
      height="300px"
      width="50px"
      fill="white"
      transform="rotate(-30,1600,1600)"/>
    <rect
      id="tickMark56"
      x="1590"
      y="100"
      height="100px"
      width="20px"
      fill="white"
      transform="rotate(-24,1600,1600)"/>
    <rect
      id="tickMark57"
      x="1590"
      y="100"
      height="100px"
      width="20px"
      fill="white"
      transform="rotate(-18,1600,1600)"/>
    <rect
      id="tickMark58"
      x="1590"
      y="100"
      height="100px"
      width="20px"
      fill="white"
      transform="rotate(-12,1600,1600)"/>
    <rect
      id="tickMark59"
      x="1590"
      y="100"
      height="100px"
      width="20px"
      fill="white"
      transform="rotate(-6,1600,1600)"/>
        </g>
</svg>
